inDegrees=yes
name=ik_S51_A05_T03
DataType=double
version=3
OpenSimVersion=4.3-2021-08-27-4bc7ad9
endheader
time	pelvis_tilt	pelvis_list	pelvis_rotation	pelvis_tx	pelvis_ty	pelvis_tz	hip_flexion_r	hip_adduction_r	hip_rotation_r	knee_angle_r	knee_angle_r_beta	ankle_angle_r	subtalar_angle_r	mtp_angle_r	hip_flexion_l	hip_adduction_l	hip_rotation_l	knee_angle_l	knee_angle_l_beta	ankle_angle_l	subtalar_angle_l	mtp_angle_l	lumbar_extension	lumbar_bending	lumbar_rotation	arm_flex_r	arm_add_r	arm_rot_r	elbow_flex_r	pro_sup_r	wrist_flex_r	wrist_dev_r	arm_flex_l	arm_add_l	arm_rot_l	elbow_flex_l	pro_sup_l	wrist_flex_l	wrist_dev_l
15.21999999999976	-3.595712612495238	-1.583179331942535	28.05494391620893	0	0.9399999999999999	0	28.21825753063709	-9.34986898287374	-8.397021964397069	31.6377604392997	0.5521830876229873	0	0	0	28.21825753063709	-9.34986898287374	-8.397021964397069	31.6377604392997	0.5521830876229873	0	0	0	-1.530891803882865	-3.581709615011434	9.044244944402283	61.44965571499857	-15.07027540272479	6.889984998717392	69.97072528951378	102.9322017565018	0	0	36.45131021526657	4.455468968072656	-3.366742876340619	33.06469449484344	158.7127457247065	0	0
15.23999999999976	-3.589977388548832	-1.597356385377296	28.11148872493492	0	0.9399999999999999	0	28.22744358272289	-9.35104572042348	-8.398887412158015	31.64712547675341	0.5523465383611272	0	0	0	28.22744358272289	-9.35104572042348	-8.398887412158015	31.64712547675341	0.5523465383611272	0	0	0	-1.53421812066698	-3.594084863623119	9.005198764621712	61.41081068869158	-14.79646789865271	7.016831769080295	69.72057705335524	103.0931734315915	0	0	36.52339015824276	4.515936743691033	-3.179067218067228	32.95899040956448	158.5578593119597	0	0
15.25999999999976	-3.586962865051772	-1.641161350774273	28.17405905723354	0	0.9399999999999999	0	28.23742120982536	-9.352319358250275	-8.400909506941687	31.65731873340087	0.5525244442511261	0	0	0	28.23742120982536	-9.352319358250275	-8.400909506941687	31.65731873340087	0.5525244442511261	0	0	0	-1.553154531512657	-3.63241289809511	8.998592352123014	61.37461840945398	-14.58525095149384	7.024677036599293	69.48611855973817	103.3436612331854	0	0	36.69450427770083	4.609145612610464	-2.944934842018248	32.7965571618418	158.4784580163592	0	0
15.27999999999976	-3.584671487841704	-1.671459474708839	28.21490907814518	0	0.9399999999999999	0	28.24908516708247	-9.353819412321563	-8.403285135381367	31.66914357778808	0.5527308267192189	0	0	0	28.24908516708247	-9.353819412321563	-8.403285135381367	31.66914357778808	0.5527308267192189	0	0	0	-1.566724589132028	-3.658197644532204	8.989418897162636	61.34818147249671	-14.40613470587592	7.024548559851548	69.21132380361182	103.608780878295	0	0	36.72259945865719	4.601162587008879	-2.893761369705815	32.80330591485008	158.4568485116399	0	0
15.29999999999976	-3.585429843048503	-1.750608867989296	28.27511859377289	0	0.9399999999999999	0	28.25263164728846	-9.354272429627777	-8.40400448918367	31.67275733378638	0.552793898659753	0	0	0	28.25263164728846	-9.354272429627777	-8.40400448918367	31.67275733378638	0.552793898659753	0	0	0	-1.604963725957678	-3.727324084646957	8.996636497198558	61.34876145127435	-14.27463916659985	6.938438472399815	69.13221496714249	103.69870156987	0	0	36.8581157104151	4.59850393087603	-2.848988270014714	32.77486555008773	158.5617933263909	0	0
15.31999999999976	-3.58423492881731	-1.762988416949486	28.31416649721559	0	0.9399999999999999	0	28.26184749627019	-9.355452873957947	-8.405877311804673	31.68211921487783	0.552957294308979	0	0	0	28.26184749627019	-9.355452873957947	-8.405877311804673	31.68211921487783	0.552957294308979	0	0	0	-1.611320374744592	-3.73638966115863	8.971223922821954	61.30299567310861	-14.078468476684	6.954134479178993	68.76495930167616	104.0784706607526	0	0	36.92009284857979	4.654487169027606	-2.931037439162472	32.68404470168669	158.7433224740475	0	0
15.33999999999976	-3.586732819512638	-1.78984136708406	28.35445237186449	0	0.9399999999999999	0	28.2743376294264	-9.35704915730339	-8.408412572001383	31.69481711316645	0.5531789144421988	0	0	0	28.2743376294264	-9.35704915730339	-8.408412572001383	31.69481711316645	0.5531789144421988	0	0	0	-1.628000368724031	-3.75601128000483	8.947447304581754	61.24079854284145	-13.85557340290861	7.006723719970504	68.37061744843183	104.6292982235345	0	0	36.96450404713253	4.686468310360964	-2.855245393194433	32.70131667490582	158.706625741684	0	0
15.35999999999976	-3.583876098768358	-1.809116893026102	28.36793921213306	0	0.9399999999999999	0	28.29590102964693	-9.359046258549158	-8.412102357462617	31.71735965103502	0.5535723559497608	0	0	0	28.29590102964693	-9.359046258549158	-8.412102357462617	31.71735965103502	0.5535723559497608	0	0	0	-1.636804978607044	-3.770981727603035	8.945867316020179	61.21524378806315	-13.81546181396345	7.053812819072252	68.38784280328892	104.6151710524851	0	0	36.98013606755262	4.723498146719717	-2.775120432932383	32.73018296478693	158.7060346150556	0	0
15.37999999999976	-3.595415227116527	-1.81526798626472	28.39255030143609	0	0.9399999999999999	0	28.29926040633522	-9.359471559778271	-8.412780440156476	31.7207951501266	0.5536323167203582	0	0	0	28.29926040633522	-9.359471559778271	-8.412780440156476	31.7207951501266	0.5536323167203582	0	0	0	-1.65028874280271	-3.770228139964711	8.942411688983016	61.18457482356904	-13.78929590679046	7.104475660671654	68.46399672710062	104.7530657700848	0	0	37.03317359145414	4.82263211452807	-2.819357052080075	32.73416358963633	158.7456789289007	0	0
15.39999999999976	-3.589200697050619	-1.817687061921663	28.38091661569341	0	0.9399999999999999	0	28.28929293065486	-9.359041681579125	-8.411475339892002	31.71010543680531	0.5534457460268074	0	0	0	28.28929293065486	-9.359041681579125	-8.411475339892002	31.71010543680531	0.5534457460268074	0	0	0	-1.644336690151737	-3.777834268371537	8.962487653352611	61.14653882181883	-13.73915501164232	7.037743074176221	68.41649698323317	105.1648768851551	0	0	37.05770863667343	4.85858533179147	-2.830356429180393	32.66316758873589	158.8037295761379	0	0
15.41999999999976	-3.598667085154157	-1.819372137985147	28.36023301019535	0	0.9399999999999999	0	28.27114203424432	-9.358773739243295	-8.409575619558952	31.69000831462204	0.5530949850745337	0	0	0	28.27114203424432	-9.358773739243295	-8.409575619558952	31.69000831462204	0.5530949850745337	0	0	0	-1.651198554022412	-3.778479996324073	8.976075372063717	61.17312275756023	-13.77806304564326	6.957211514368534	68.38583605255893	105.1790815728103	0	0	37.09980838377555	4.877520477158956	-2.86838289473949	32.63505838736391	158.7795617086358	0	0
15.43999999999976	-3.600441071751858	-1.821703710620034	28.36340462868558	0	0.9399999999999999	0	28.26503313208813	-9.359488170552124	-8.409636966160569	31.68258582172403	0.5529654381347574	0	0	0	28.26503313208813	-9.359488170552124	-8.409636966160569	31.68258582172403	0.5529654381347574	0	0	0	-1.651615869119236	-3.783078545705143	9.026171544242217	61.12877049257224	-13.88099322717363	6.856958713404604	68.42660779798237	105.5499578257184	0	0	37.1607614625575	4.925592346894621	-2.830473973885206	32.56315659012326	158.7614211656558	0	0
15.45999999999976	-3.601819001888894	-1.827973582927105	28.3646442257787	0	0.9399999999999999	0	28.28065885073505	-9.361247407346648	-8.412581014075101	31.69873028733993	0.55324721221573	0	0	0	28.28065885073505	-9.361247407346648	-8.412581014075101	31.69873028733993	0.55324721221573	0	0	0	-1.656744952030159	-3.786312368433173	9.041453810939093	61.12491090620565	-13.91130738673568	6.898205362170427	68.42192588529976	105.6943250465348	0	0	37.19346008196755	4.922408007922646	-2.750517300622255	32.55129686307308	158.7200618056783	0	0
15.47999999999976	-3.610994906855757	-1.828336635233762	28.36139857586421	0	0.9399999999999999	0	28.26098626084995	-9.360191951905268	-8.409858883597481	31.67761642379605	0.5528787057790724	0	0	0	28.26098626084995	-9.360191951905268	-8.409858883597481	31.67761642379605	0.5528787057790724	0	0	0	-1.661913733404258	-3.787164452847148	9.083319005992537	61.12972116663553	-13.9317654605094	6.860818957182467	68.3333508462316	105.8804097498973	0	0	37.23628146682424	4.980301277851966	-2.686793642318154	32.45526857062983	158.7480471919425	0	0
15.49999999999976	-3.604366159867721	-1.840928829408356	28.37895634519143	0	0.9399999999999999	0	28.28618234914309	-9.363268422075596	-8.414844465107047	31.70328553247437	0.5533267162415615	0	0	0	28.28618234914309	-9.363268422075596	-8.414844465107047	31.70328553247437	0.5533267162415615	0	0	0	-1.664542641701285	-3.797369440217652	9.072403771893461	61.0919545811895	-13.89835080119425	6.934035277790656	68.31954880627556	105.825712402492	0	0	37.22303142289636	4.970623291998114	-2.644275690839874	32.50206989134665	158.6519245150374	0	0
15.51999999999976	-3.612117873193258	-1.825431796584457	28.3893639174491	0	0.9399999999999999	0	28.30429843886533	-9.365787133217447	-8.418692426427278	31.72149605340804	0.5536445497903574	0	0	0	28.30429843886533	-9.365787133217447	-8.418692426427278	31.72149605340804	0.5536445497903574	0	0	0	-1.666152728805981	-3.776614691853946	9.050661492084958	61.05884853914369	-13.87627755854184	7.083582496835161	68.36720174776852	105.8283563501437	0	0	37.19177502659307	4.987550249421517	-2.645466084131795	32.5200356427107	158.6003377981883	0	0
